Nederlands gesproken,
Po's droom is uitgekomen nu hij De Drakenkrijger is en de Vredesvallei beschermt samen met zijn vrienden en andere Kung Fu meesters, De Vurige Vijf - Tijger, Kraan, Mantis, Viper en Aap. Zijn heerlijke leventje verandert volledig als er een nare tegenstander met een geheim wapen China probeert te veroveren en Kung Fu wil uitroeien. Samen met De Vurige Vijf moet hij China doorkruisen om deze vijand te overmeesteren. Maar hoe kan Po een wapen ontmantelen dat Kung Fu vernietigt? Hij zal daarvoor eerst zijn mysterieuze verleden moeten ontrafelen om vervolgens de juiste krachten uit zichzelf te halen.

Dutch spoken,
Po joins forces with a group of new kung-fu masters to take on an old enemy with a deadly new weapon.

------------------ Dutch Friends ------------------
You can find my Friends at: http://www.Film-Test.nl 
------ They got my dutch subs ----- and more ------

General:

Complete name                    : Kung Fu Panda 2\Kung Fu Panda 2.avi
Format                           : AVI
Format/Info                      : Audio Video Interleave
File size                        : 1.42 GiB
Duration                         : 1h 26mn
Overall bit rate                 : 2 338 Kbps

Video:

Format                           : MPEG-4 Visual
Format profile                   : Simple@L3
Format settings, BVOP            : No
Format settings, QPel            : No
Format settings, GMC             : No warppoints
Format settings, Matrix          : Default (H.263)
Codec ID                         : XVID
Codec ID/Hint                    : XviD
Duration                         : 1h 26mn
Bit rate                         : 1 880 Kbps
Width                            : 720 pixels
Height                           : 304 pixels
Display aspect ratio             : 2.35:1
Frame rate                       : 25.000 fps
Color space                      : YUV
Chroma subsampling               : 4:2:0
Bit depth                        : 8 bits
Scan type                        : Progressive
Compression mode                 : Lossy
Bits/(Pixel*Frame)               : 0.343
Stream size                      : 1.14 GiB (80%)
Writing library                  : XviD 1.1.2 (UTC 2006-11-01)

Audio:

Format                           : AC-3
Format/Info                      : Audio Coding 3
Mode extension                   : CM (complete main)
Codec ID                         : 2000
Duration                         : 1h 26mn
Bit rate mode                    : Constant
Bit rate                         : 448 Kbps
Channel(s)                       : 6 channels
Channel positions                : Front: L C R, Side: L R, LFE
Sampling rate                    : 48.0 KHz
Bit depth                        : 16 bits
Compression mode                 : Lossy
Stream size                      : 278 MiB (19%)
Alignment                        : Aligned on interleaves
Interleave, duration             : 32 ms (0.80 video frame)
Interleave, preload duration     : 384 ms
